<svg xmlns="http://www.w3.org/2000/svg" viewBox="0 0 1400 1400" width="1400" height="1400" role="img" aria-label="MasterVault mark">
  <title>MasterVault mark</title>
  <path id="mv-silhouette" fill="#000000" d="M694.97 1327C694.98 1326.8 694.98 1326.64 694.98 1326.52C686.71 1321.32 678.59 1315.77 670.49 1310.26C665.85 1307.1 661.12 1304.09 656.5 1300.87C625.82 1279.47 596.39 1256.14 569.5 1229.98C559.36 1220.12 546.05 1205.53 537.24 1194.49C533.55 1189.87 529.84 1185.25 526.34 1180.49C525.27 1179.03 522.81 1174.97 521.5 1174.1C520.82 1173.65 516.58 1172.14 515.51 1171.72C511.79 1170.23 508.18 1168.44 504.5 1166.83C501.49 1165.52 498.52 1164.06 495.51 1162.72C494.5 1162.27 493.53 1161.58 492.5 1161.21C492.17 1161.09 491.81 1161.07 491.5 1160.93C490.49 1160.45 489.54 1159.81 488.5 1159.36C484.51 1157.65 480.5 1155.9 476.5 1154.22C472.19 1152.41 467.8 1150.69 463.5 1148.83C461.18 1147.82 458.8 1146.44 456.49 1145.34C453.48 1143.9 450.38 1142.53 447.5 1140.86C445.47 1139.67 443.52 1138.29 441.5 1137.1C432.2 1131.63 423.33 1125.54 414.49 1119.33C392.86 1104.13 372.57 1087.17 352.5 1069.92C343.15 1061.88 333.88 1053.73 324.68 1045.51C322.59 1043.64 320.6 1041.66 318.51 1039.8C313.5 1035.34 308.4 1031.01 303.49 1026.44C300.93 1024.05 298.23 1021.85 295.63 1019.51C287.5 1012.18 279.43 1004.8 271.29 997.49C264.98 991.81 258.26 986.22 253.01 979.5C247.42 972.35 242.69 964.78 238.99 956.5C236.44 950.79 233.82 941.72 233.09 935.5C232.62 931.53 232.73 927.48 232.42 923.5C231.91 916.84 231.92 910.18 231.84 903.5C231.74 894.16 231.75 884.84 231.88 875.5C231.94 871.51 231.88 867.49 232.1 863.5C232.29 860.16 232.64 856.84 232.78 853.5C232.87 851.17 232.87 848.83 233.01 846.5C233.18 843.49 233.6 840.51 233.76 837.5C233.89 835.17 233.88 832.83 234.01 830.5C234.16 827.49 234.6 824.51 234.78 821.5C235.34 811.82 236.19 802.16 237.07 792.5C237.22 790.82 237.57 789.17 237.74 787.5C237.91 785.84 237.9 784.16 238.07 782.5C238.24 780.82 238.58 779.17 238.75 777.5C239.62 769.14 240.69 760.84 241.63 752.5C242.16 747.83 242.54 743.16 243.12 738.5C243.9 732.15 244.91 725.84 245.72 719.5C246.23 715.5 246.59 711.49 247.15 707.5C247.81 702.83 248.48 698.18 249.11 693.5C249.25 692.49 249.56 691.51 249.7 690.5C250.26 686.51 250.59 682.49 251.17 678.5C251.32 677.49 251.62 676.51 251.76 675.5C254.01 659.11 256.71 642.86 259.12 626.5C259.27 625.48 259.6 624.51 259.75 623.5C259.95 622.17 259.98 620.83 260.19 619.5C260.67 616.5 261.27 613.5 261.74 610.5C261.95 609.17 261.97 607.83 262.17 606.5C262.33 605.48 262.65 604.52 262.81 603.5C263.62 598.51 264.28 593.49 265.05 588.5C265.2 587.48 265.54 586.51 265.7 585.5C265.91 584.17 265.96 582.83 266.17 581.5C266.65 578.5 267.26 575.5 267.75 572.5C268.29 569.18 268.64 565.82 269.22 562.5C269.34 561.82 269.6 561.18 269.71 560.5C269.93 559.17 269.96 557.83 270.19 556.5C270.31 555.83 270.61 555.17 270.73 554.5C270.96 553.18 271 551.83 271.23 550.5C271.35 549.82 271.61 549.18 271.73 548.5C272.32 545.18 272.68 541.82 273.27 538.5C274.38 532.17 275.57 525.83 276.68 519.5C277.26 516.18 277.58 512.82 278.16 509.5C278.34 508.47 278.68 507.52 278.87 506.5C279.38 503.85 279.71 501.16 280.14 498.5C280.31 497.48 280.64 496.51 280.81 495.5C280.97 494.51 280.98 493.49 281.16 492.5C281.29 491.82 281.6 491.18 281.73 490.5C282.31 487.52 282.64 484.49 283.16 481.5C283.28 480.81 283.54 480.18 283.67 479.5C284.22 476.5 284.62 473.49 285.17 470.5C285.92 466.47 286.84 462.48 287.71 458.5C288.29 455.85 288.63 453.14 289.28 450.5C289.36 450.15 289.6 449.85 289.68 449.5C289.89 448.5 289.94 447.49 290.15 446.5C290.65 444.15 291.32 441.84 291.88 439.5C292.03 438.84 292.04 438.16 292.17 437.5C292.33 436.71 292.61 436.26 292.79 435.5C293.33 433.17 293.72 430.83 294.27 428.5C295.3 424.13 296.68 419.84 297.88 415.5C298.43 413.52 298.78 411.49 299.33 409.5C300.07 406.81 301.03 404.16 301.9 401.5C303.09 397.85 304.03 394.13 305.27 390.5C305.73 389.16 306.37 387.84 306.83 386.5C308.29 382.15 309.77 377.81 311.35 373.5C312.1 371.48 313.1 369.52 313.85 367.5C314.96 364.48 316.04 361.47 317.27 358.5C320.51 350.7 324.29 343.1 328.01 335.5C329.15 333.18 330.13 330.81 331.29 328.51C333 325.11 334.96 321.82 336.83 318.5C339.48 313.8 342.05 309.08 344.91 304.5C347.16 300.9 349.13 297.13 351.49 293.6C375.69 257.36 409.01 221.49 442.49 193.59C451.47 186.1 460.35 178.43 469.76 171.49C471.32 170.34 472.95 169.27 474.5 168.1C488.07 157.94 502.14 148.47 516.5 139.49C518.46 138.26 520.53 137.21 522.5 136.03C524.52 134.81 526.45 133.42 528.51 132.24C537.09 127.32 545.75 122.55 554.5 117.93C556.18 117.04 557.8 116.03 559.5 115.18C560.48 114.7 561.53 114.38 562.5 113.91C563.53 113.42 564.49 112.76 565.51 112.24C567.14 111.41 568.84 110.73 570.5 109.93C572.19 109.13 573.8 108.16 575.5 107.38C592.46 99.68 608.81 92.73 626.5 86.78C627.84 86.33 629.16 85.68 630.5 85.23C634.13 84.03 637.85 83.07 641.5 81.98C642.18 81.78 642.83 81.44 643.5 81.26C644.16 81.08 644.85 81.06 645.5 80.86C648.48 79.98 651.47 79.04 654.5 78.36C662.42 76.59 670.42 75.04 678.5 74.16C680.96 73.89 683.44 73.79 685.9 73.5C685.9 73.33 685.9 73.17 685.9 73L702.01 73C702.01 73.17 702.01 73.33 702.01 73.5C704.17 73.77 706.34 73.86 708.5 74.11C709.85 74.26 711.16 74.6 712.5 74.8C718.21 75.65 723.91 76.66 729.5 78.17C757.58 85.75 789.8 102.31 814.51 117.83C816.46 119.06 818.52 120.16 820.49 121.37C826.2 124.9 831.86 128.55 837.49 132.22C843.26 135.97 848.85 140 854.5 143.92C868.61 153.69 882.42 163.89 895.92 174.5C950.53 217.44 1000.43 267.61 1041.51 323.71C1052.37 338.53 1062.4 353.89 1071.99 369.5C1072.82 370.86 1073.78 372.14 1074.6 373.51C1079.72 381.98 1084.46 390.7 1089 399.5C1089.88 401.2 1090.94 402.81 1091.83 404.5C1091.99 404.81 1092.03 405.18 1092.17 405.5C1092.64 406.53 1093.35 407.48 1093.86 408.5C1095.01 410.81 1096.03 413.18 1097.17 415.5C1098 417.19 1099.02 418.8 1099.86 420.5C1101 422.79 1101.91 425.19 1103.01 427.5C1104.59 430.85 1106.29 434.15 1107.84 437.5C1109.05 440.11 1110.06 442.85 1111.19 445.5C1111.35 445.86 1111.64 446.15 1111.8 446.5C1111.94 446.82 1111.95 447.18 1112.07 447.5C1112.84 449.55 1113.97 451.49 1114.83 453.5C1115.66 455.46 1116.28 457.55 1117.14 459.5C1117.3 459.85 1117.59 460.14 1117.73 460.5C1119.27 464.49 1120.69 468.51 1122.22 472.5C1122.99 474.52 1124.01 476.49 1124.78 478.5C1126.04 481.81 1127.14 485.18 1128.34 488.49C1129.79 492.51 1131.43 496.47 1132.86 500.5C1133.68 502.8 1134.31 505.21 1135.15 507.5C1136.35 510.81 1137.65 514.14 1138.7 517.51C1138.9 518.16 1138.95 518.85 1139.16 519.5C1141.85 527.45 1144.48 535.43 1146.83 543.5C1149.52 552.76 1151.67 562.14 1153.92 571.5C1154.86 575.45 1155.52 579.5 1156.21 583.5C1156.73 586.5 1157.46 589.48 1157.87 592.5C1159.9 607.63 1160.51 622.24 1160.11 637.5C1159.99 642.37 1159.38 648.66 1158.72 653.5C1158.47 655.3 1157.02 663.35 1157.15 664.5C1157.25 665.29 1158.61 667.6 1159.03 668.5C1160.31 671.29 1161.95 675.56 1162.85 678.5C1163.63 681.03 1162.56 677.97 1163.27 680.5C1163.46 681.19 1163.79 681.79 1163.98 682.5C1164.19 683.26 1164.16 683.73 1164.34 684.5C1166.14 692.43 1167.33 700.32 1167.41 708.5C1167.63 731.45 1160.77 750.23 1149 769.5C1145.58 775.11 1140.85 781.25 1136.82 786.49C1127.93 798.06 1120.95 805.49 1113.51 818.5C1112.75 819.82 1111.9 821.15 1111.23 822.5C1110.73 823.52 1107.85 829.84 1107.82 830.5C1107.8 830.83 1107.77 831.18 1107.88 831.5C1108.44 833.18 1113.58 839.62 1114.95 841.5C1121.34 850.33 1128.19 858.79 1134.73 867.51C1147.58 884.65 1163.57 904.87 1166.9 926.5C1167.98 933.49 1168 940.5 1167.25 947.5C1166.76 952.08 1165.51 958.18 1163.93 962.5C1163.8 962.86 1163.51 963.15 1163.38 963.5C1160.97 969.81 1157.89 976.02 1153.79 981.49C1148.46 988.63 1142.5 993.29 1136.36 999.51C1131.11 1004.82 1125.78 1010.06 1120.51 1015.35C1118.79 1017.08 1117.19 1018.88 1115.37 1020.51C1110.21 1025.11 1104.82 1029.4 1099.49 1033.79C1090.48 1041.23 1081.44 1048.61 1072.51 1056.14C1053.68 1072.01 1034.83 1087.92 1015.51 1103.16C1010.73 1106.92 1006.05 1110.8 1001.24 1114.51C984.8 1127.19 965.81 1140.15 947.5 1149.78C930.38 1158.78 911.09 1166.45 892.5 1171.93C889.53 1172.81 893.47 1171.53 890.5 1172.35C883.56 1174.28 876.55 1176.28 869.5 1177.8C867.95 1178.13 861.33 1179.21 860.49 1179.73C859.04 1180.64 855.16 1185.89 853.85 1187.5C849.71 1192.59 845.39 1197.62 840.99 1202.5C833.67 1210.63 826.26 1218.7 818.57 1226.49C812.53 1232.62 806.25 1238.54 800.04 1244.5C796.94 1247.47 793.67 1250.25 790.51 1253.14C775.46 1266.87 759.8 1280.02 743.51 1292.23C739.79 1295.01 736.24 1298.05 732.49 1300.79C729.41 1303.04 726.3 1305.23 723.24 1307.51C716.75 1312.33 710.11 1316.92 703.5 1321.55C702.67 1322.12 696.7 1326.09 696.52 1326.5C696.48 1326.58 696.46 1326.76 696.44 1327Z"/>
  <path id="mv-field" fill="#FFFFFF" d="M696.5 1283.01C695.85 1282.88 695.13 1283.21 694.5 1283C693.78 1282.76 693.12 1281.52 692.5 1281.08C692.23 1280.88 691.81 1281.12 691.5 1281C690.69 1280.69 690.31 1279.27 689.5 1279C689.18 1278.89 688.77 1279.19 688.5 1279C687.74 1278.45 687.26 1277.54 686.5 1277C686.23 1276.81 685.82 1277.1 685.5 1277C684.79 1276.76 684.12 1275.51 683.5 1275.06C683.23 1274.87 682.81 1275.12 682.5 1275C681.72 1274.7 681.3 1273.31 680.5 1273.04C680.18 1272.93 679.77 1273.19 679.5 1273C678.36 1272.19 677.63 1270.8 676.5 1270C676.23 1269.81 675.82 1270.1 675.5 1270C675.06 1269.86 674.94 1269.19 674.5 1269.04C674.18 1268.93 673.77 1269.19 673.5 1269C672.36 1268.19 671.63 1266.81 670.5 1266C670.23 1265.81 669.82 1266.1 669.5 1266C668.68 1265.73 668.3 1264.27 667.5 1264C667.18 1263.89 666.77 1264.2 666.5 1264C665 1262.86 667.11 1264.25 665.51 1262.72C665.01 1262.25 661.37 1259.81 660.49 1259.17C647.54 1249.84 634.71 1240.22 622.5 1229.9C614.59 1223.21 607.01 1216.14 599.5 1209.01C592.22 1202.09 585.09 1194.99 578.4 1187.49C570.38 1178.48 562.61 1169.18 555.49 1159.45C553.1 1156.17 550.68 1152.89 548.45 1149.5C547.65 1148.29 546.18 1145.3 545.16 1144.49C543.86 1143.44 538.41 1142.26 536.5 1141.71C531.47 1140.24 526.44 1138.7 521.5 1136.95C515.81 1134.93 510.13 1132.92 504.51 1130.71C503.47 1130.31 502.51 1129.67 501.5 1129.24C495.05 1126.54 489.75 1124.17 483.5 1121.07C481.19 1119.93 478.78 1118.94 476.51 1117.73C473.79 1116.27 471.17 1114.62 468.5 1113.1C466.52 1111.98 464.46 1110.95 462.5 1109.82C459.42 1108.05 456.5 1106 453.5 1104.11C439.89 1095.55 427.15 1085.65 414.51 1075.7C409.4 1071.68 404.53 1067.36 399.49 1063.25C385.77 1052.04 372.68 1040.06 359.49 1028.24C347.17 1017.19 334.76 1006.22 322.5 995.11C312.53 986.09 302.44 977.22 292.49 968.19C285.58 961.92 278.96 955.64 274.22 947.5C273.29 945.9 272.64 944.16 271.85 942.5C271.68 942.14 271.38 941.86 271.21 941.5C270.33 939.63 269.61 937.5 269.07 935.5C267.14 928.33 267.12 917.08 266.97 909.5C266.69 895.52 266.63 881.47 267.12 867.5C267.23 864.49 267.57 861.5 267.74 858.5C267.95 854.84 267.91 851.16 268.15 847.5C268.31 845.17 268.59 842.84 268.74 840.5C268.93 837.5 268.92 834.49 269.17 831.5C269.67 825.5 270.35 819.5 270.85 813.5C271.02 811.51 271.01 809.5 271.2 807.5C271.33 806.16 271.62 804.84 271.75 803.5C271.96 801.17 271.97 798.83 272.2 796.5C272.3 795.48 272.55 794.51 272.67 793.5C272.95 791.18 272.98 788.83 273.22 786.5C273.87 780.5 274.54 774.5 275.19 768.5C275.63 764.49 276.32 760.5 276.81 756.5C277.42 751.49 277.99 746.49 278.67 741.5C278.94 739.51 278.98 737.49 279.27 735.5C279.41 734.49 279.69 733.52 279.83 732.5C281.06 723.52 282.01 714.49 283.22 705.5C283.98 699.82 285 694.18 285.78 688.5C288.12 671.48 290.71 654.5 293.18 637.5C293.67 634.16 294.43 630.85 294.9 627.5C295.79 621.15 296.88 614.84 297.81 608.5C298.01 607.17 298.06 605.83 298.27 604.5C298.43 603.49 298.73 602.52 298.87 601.5C299.32 598.16 299.73 594.83 300.27 591.5C300.71 588.83 301.3 586.17 301.76 583.5C302.32 580.17 302.74 576.83 303.32 573.5C303.45 572.82 303.71 572.19 303.82 571.5C304.04 570.17 304.11 568.83 304.32 567.5C304.8 564.49 305.49 561.51 305.95 558.5C307.43 548.81 309.08 539.14 310.81 529.5C311.04 528.17 311.11 526.83 311.34 525.5C312.1 521.17 313.05 516.84 313.78 512.5C314.96 505.5 316.01 498.48 317.27 491.5C318.36 485.48 319.68 479.48 320.97 473.5C321.83 469.52 322.48 465.49 323.3 461.5C324.06 457.8 325.08 454.15 326.04 450.5C326.56 448.53 326.81 446.48 327.29 444.5C327.45 443.8 327.79 443.2 327.96 442.5C328.47 440.52 328.77 438.48 329.32 436.5C329.87 434.5 330.56 432.52 331.03 430.5C331.64 427.9 330.7 431.11 331.37 428.5C331.54 427.82 331.87 427.18 332.06 426.5C332.54 424.86 332.84 423.14 333.34 421.5C334.75 416.81 336.37 412.16 337.87 407.5C338.85 404.49 339.84 401.49 340.84 398.5C341.05 397.85 341.12 397.15 341.35 396.5C341.83 395.15 342.51 393.84 343 392.5C345.09 386.85 346.96 381.07 349.29 375.51C359.62 350.77 371.5 328.1 386.49 305.77C388.7 302.48 391.16 299.38 393.51 296.2C405.59 279.84 419.02 265.06 433.49 250.79C467.06 217.7 504.99 189.18 545.51 165.15C563.88 154.25 582.88 144.25 602.5 135.88C603.52 135.45 604.49 134.84 605.51 134.38C609.46 132.61 613.5 130.94 617.51 129.3C620.45 128.1 623.53 127.13 626.5 126C629.83 124.73 633.14 123.43 636.5 122.25C637.81 121.79 639.2 121.5 640.5 121.05C656.62 115.48 676.36 110.36 693.5 110.21C698.92 110.16 704.18 111.01 709.5 111.88C727.45 114.82 744.21 121.78 760.51 129.6C782.86 140.33 803.98 153.71 824.51 167.67C834.27 174.31 844.06 180.98 853.5 188.06C857.49 191.06 861.51 194.02 865.5 197.03C867.89 198.83 870.12 200.82 872.51 202.62C882.52 210.19 892.02 218.46 901.51 226.68C914.92 238.3 927.9 250.3 940.51 262.8C972.5 294.55 1001.96 328.91 1026.84 366.51C1040.89 387.74 1053.67 409.76 1064.91 432.5C1066.08 434.87 1067.41 437.14 1068.56 439.5C1070.16 442.79 1071.55 446.2 1073.1 449.5C1073.27 449.86 1073.59 450.15 1073.78 450.51C1074.28 451.45 1074.57 452.54 1075.02 453.5C1076.11 455.81 1077.15 458.16 1078.23 460.49C1078.8 461.74 1078.23 459.91 1078.81 461.5C1078.93 461.83 1078.95 462.19 1079.1 462.5C1079.26 462.85 1079.56 463.14 1079.71 463.5C1081.82 468.49 1083.91 473.52 1086.03 478.5C1086.88 480.51 1087.86 482.49 1088.69 484.51C1089.22 485.8 1089.58 487.22 1090.14 488.5C1090.69 489.75 1090.33 488.46 1090.76 489.5C1090.89 489.82 1090.86 490.18 1090.98 490.5C1091.47 491.86 1092.21 493.16 1092.72 494.5C1093.23 495.81 1093.56 497.22 1094.1 498.5C1094.24 498.85 1094.53 499.14 1094.66 499.5C1095.41 501.47 1096.38 504.71 1097.12 506.5C1097.28 506.86 1097.59 507.14 1097.73 507.5C1098.61 509.8 1099.22 512.21 1100.08 514.5C1100.58 515.83 1101.19 517.15 1101.64 518.5C1101.86 519.16 1101.94 519.85 1102.17 520.5C1102.3 520.86 1102.59 521.14 1102.72 521.5C1103.62 524.11 1104.36 526.91 1105.22 529.5C1105.34 529.86 1105.64 530.14 1105.76 530.5C1107.05 534.37 1104.97 528.64 1106.22 532.5C1106.34 532.86 1106.62 533.14 1106.74 533.5C1107.26 535.15 1107.6 536.86 1108.13 538.5C1110.05 544.47 1111.99 550.47 1113.7 556.5C1114.26 558.48 1114.6 560.52 1115.16 562.5C1116.85 568.46 1118.48 574.43 1119.77 580.5C1123.27 597.05 1125.57 612.49 1125.02 629.5C1124.94 631.83 1124.97 634.17 1124.78 636.5C1124.21 643.24 1122.98 651.84 1121.69 658.5C1121.33 660.39 1119.22 668.25 1119.38 669.5C1119.49 670.32 1120.48 671.69 1120.88 672.5C1121.04 672.81 1121.07 673.18 1121.21 673.5C1121.82 674.84 1123.26 677.01 1123.9 678.5C1124.04 678.82 1124.06 679.19 1124.22 679.5C1124.43 679.9 1124.7 680.05 1124.88 680.5C1125.01 680.82 1124.99 681.19 1125.14 681.5C1125.31 681.85 1125.59 682.14 1125.73 682.51C1128.91 690.6 1131.29 699.77 1131.84 708.5C1131.99 710.88 1131.77 713.17 1131.43 715.5C1131.18 717.16 1131.12 718.85 1130.81 720.5C1130.8 720.55 1130.27 722.41 1130.24 722.5C1128.23 731.04 1126.43 735.8 1122.3 743.51C1120.87 746.18 1119.5 748.91 1117.88 751.5C1112.02 760.85 1104.47 769.65 1097.8 778.49C1094.3 783.14 1090.52 787.63 1087.35 792.51C1083.62 798.22 1080.5 804.31 1077.68 810.49C1075.16 816 1072.75 821.64 1071.11 827.5C1070.93 828.16 1070.89 828.85 1070.7 829.5C1070.43 830.4 1068.97 834.84 1068.96 835.5C1068.92 837.18 1068.63 835.84 1069.14 837.5C1069.38 838.3 1073.11 843.46 1073.83 844.51C1075.65 847.14 1077.33 849.88 1079.16 852.5C1080.8 854.84 1082.48 857.18 1084.16 859.5C1084.67 860.2 1085.34 860.8 1085.85 861.5C1089.26 866.18 1092.61 870.89 1096.13 875.5C1096.93 876.54 1097.89 877.47 1098.7 878.51C1100.23 880.48 1101.68 882.51 1103.19 884.49C1103.98 885.54 1104.91 886.47 1105.71 887.51C1109.27 892.13 1112.79 896.75 1116.19 901.49C1116.69 902.19 1117.31 902.8 1117.79 903.5C1118.67 904.78 1119.41 906.22 1120.28 907.49C1121.85 909.8 1123.44 912.05 1124.78 914.51C1125.3 915.46 1125.66 916.52 1126.14 917.5C1126.63 918.51 1127.3 919.47 1127.74 920.5C1128.29 921.8 1128.65 923.21 1129.21 924.5C1129.22 924.51 1129.77 925.47 1129.78 925.5C1133.52 936.37 1132.74 947.6 1126.85 957.5C1120.44 968.27 1109.12 979.35 1099.51 987.4C1085.04 999.52 1070.06 1010.97 1055.5 1022.96C1042.08 1034.02 1028.78 1045.24 1015.5 1056.45C1005.57 1064.84 995.74 1073.31 985.51 1081.34C981.18 1084.74 976.91 1088.44 972.49 1091.72C960.15 1100.88 945.99 1110.66 932.5 1117.86C930.22 1119.07 927.82 1120.09 925.5 1121.24C924.5 1121.73 923.54 1122.43 922.5 1122.86C922.18 1122.99 921.82 1123.01 921.5 1123.16C919.82 1123.97 918.2 1125.01 916.5 1125.76C915.2 1126.33 913.81 1126.73 912.5 1127.26C910.49 1128.07 908.53 1129.12 906.5 1129.88C905.19 1130.37 903.79 1130.69 902.5 1131.25C902.15 1131.4 901.85 1131.66 901.5 1131.79C898.84 1132.75 896.18 1133.47 893.5 1134.29C892.54 1134.59 893.68 1134.41 892.5 1134.79C889.54 1135.71 886.48 1136.36 883.5 1137.22C877.56 1138.95 871.57 1140.51 865.5 1141.82C862.85 1142.38 860.16 1142.77 857.5 1143.27C854.84 1143.79 852.19 1144.42 849.5 1144.83C847.53 1145.13 842.13 1145.49 840.51 1146.26C839.91 1146.54 837.21 1150.68 836.61 1151.49C833.69 1155.43 830.56 1159.24 827.5 1163.08C817.79 1175.25 807.25 1186.7 796.5 1197.96C779.39 1215.89 760.71 1232.45 741.5 1248.06C737.81 1251.06 734.15 1254.11 730.51 1257.16C729.83 1257.72 729.22 1258.44 728.5 1258.94C727.81 1259.41 727.17 1259.5 726.5 1260C725.39 1260.83 724.64 1262.18 723.5 1263C723.23 1263.19 722.82 1262.89 722.5 1263C721.99 1263.17 719.29 1266.43 718.5 1267C718.23 1267.19 717.82 1266.95 717.5 1267.06C716.52 1267.41 715.48 1269.62 714.5 1270C714.19 1270.12 713.77 1269.88 713.5 1270.08C712.82 1270.57 711.06 1272.81 710.5 1273C710.18 1273.1 709.77 1272.81 709.5 1273C708.37 1273.81 707.64 1275.19 706.5 1276C706.23 1276.19 705.82 1275.94 705.5 1276.05C704.77 1276.3 704.14 1277.54 703.5 1278C703.23 1278.19 702.82 1277.89 702.5 1278C702.01 1278.16 700.16 1280.53 699.5 1281C699.23 1281.19 698.82 1280.89 698.5 1281C698.19 1281.1 696.82 1282.69 696.5 1283.01Z"/>
  <path id="mv-blue" fill="#2465B8" fill-rule="evenodd" d="M289.5 880.74C289.47 880.61 289.22 880.66 289.17 880.55C289.03 880.23 289 879.86 288.96 879.51C288.85 878.57 289.12 877.45 289.16 876.5C289.22 874.5 289.13 872.5 289.23 870.5C289.42 866.5 289.89 862.5 290.07 858.5C290.65 845.83 291.44 833.12 292.7 820.5C293.33 814.18 293.59 807.82 294.16 801.5C294.31 799.83 294.63 798.17 294.79 796.5C295.6 788.16 296.3 779.82 297.29 771.5C299.71 751.13 302.53 730.83 305.2 710.5C305.38 709.15 305.74 707.85 305.93 706.5C306.43 702.84 306.76 699.16 307.28 695.5C307.76 692.17 308.44 688.85 308.88 685.5C311.97 661.78 315.63 638.14 319.28 614.5C320.37 607.48 321.75 600.51 322.87 593.5C325.66 575.83 328.49 558.16 331.39 540.5C332.48 533.82 333.86 527.18 335 520.5C336.81 509.79 338.95 499.17 340.98 488.5C344.04 472.41 347.32 456.36 351.47 440.5C352.17 437.81 353.04 435.17 353.8 432.5C365.17 392.64 380.21 356.06 403.39 321.51C438.11 269.76 494.73 223.11 547.49 190.63C571.48 175.86 596.5 162.77 622.5 151.9C626.14 150.38 629.79 148.79 633.5 147.45C637.15 146.14 640.83 144.93 644.49 143.67C662.02 137.61 683.95 132.08 702.5 134.32C722.1 136.7 740.15 145.01 757.5 153.95C783.43 167.32 807.9 183.54 831.59 200.51C846.69 211.32 861.23 222.82 875.51 234.69C923.95 274.95 967.56 320.92 1003.51 372.69C1007 377.72 1010.23 382.93 1013.49 388.11C1030.53 415.13 1045.64 443.4 1058.71 472.51C1059.89 475.13 1060.85 477.87 1062.01 480.5C1063.2 483.19 1064.6 485.79 1065.71 488.51C1066.93 491.47 1067.96 494.52 1069.15 497.5C1071.68 503.83 1074.35 510.11 1076.71 516.5C1078.29 520.81 1079.67 525.17 1081.22 529.5C1082.06 531.84 1083.08 534.12 1083.87 536.5C1085.07 540.14 1086.03 543.85 1087.18 547.5C1088.74 552.49 1090.39 557.47 1091.82 562.5C1093.42 568.12 1094.66 573.83 1096.06 579.5C1097.21 584.15 1098.32 588.78 1099.13 593.5C1101.22 605.66 1103.53 618.12 1102.3 630.5C1102.13 632.26 1101.74 640.44 1101.15 641.55C1101.03 641.78 1100.6 641.73 1100.5 641.97C1092.33 632.41 1084.27 622.74 1075.69 613.51C1064.17 601.09 1051.96 589.19 1039.51 577.71C1029.91 568.86 1020.47 559.82 1010.49 551.38C996.64 539.68 982.88 527.84 968.51 516.79C965.79 514.69 963.22 512.4 960.49 510.31C954.17 505.46 947.9 500.57 941.5 495.84C937.78 493.08 934.24 490.07 930.49 487.35C919.18 479.14 907.86 470.93 896.51 462.77C892.13 459.62 887.86 456.36 883.5 453.21C874.28 446.55 864.83 440.19 855.51 433.68C847.86 428.35 840.26 422.97 832.51 417.79C825.12 412.86 817.93 407.62 810.51 402.73C806.79 400.28 803.19 397.65 799.49 395.17C795.2 392.29 790.81 389.55 786.51 386.68C777.18 380.45 767.92 374.14 758.5 368.06C751.89 363.79 745.36 359.3 738.5 355.46C719.99 345.12 700.89 339.49 679.5 342.31C676.8 342.67 674.13 343.27 671.5 343.92C669.51 344.42 667.48 344.77 665.5 345.35C652.71 349.08 640.78 355.82 630.51 364.29C622.95 370.51 616.4 377.98 609.5 384.9C599.83 394.59 590.44 404.57 581.02 414.5C577.19 418.53 573.28 422.48 569.5 426.54C564.83 431.55 560.03 436.45 555.42 441.51C553.59 443.5 551.84 445.55 549.97 447.5C542.4 455.35 535.02 463.41 527.7 471.49C523.45 476.18 519.09 480.75 514.91 485.5C509.6 491.53 504.1 497.4 498.85 503.5C497.38 505.21 495.74 506.78 494.28 508.51C483.53 521.16 472.94 534.02 463.27 547.51C451.85 563.43 441.04 579.8 430.78 596.49C429.54 598.51 428.16 600.45 426.96 602.5C422.85 609.5 418.77 616.53 414.59 623.49C409.84 631.41 405.36 639.46 400.82 647.49C398.92 650.85 396.89 654.11 395.06 657.5C389.51 667.75 384.28 678.18 378.87 688.5C375.72 694.5 372.49 700.48 369.39 706.51C368.54 708.14 367.83 709.86 366.98 711.5C363.62 718 359.92 724.34 356.49 730.79C351.93 739.34 347.48 747.93 343 756.5C341.77 758.85 340.4 761.14 339.18 763.5C337.66 766.45 336.37 769.51 334.94 772.5C334.45 773.51 333.84 774.47 333.37 775.51C331.73 779.14 330.25 782.81 328.75 786.49C327.38 789.85 325.74 793.13 324.4 796.5C322.56 801.16 320.86 805.87 318.95 810.5C316.19 817.17 313.39 823.76 310.78 830.5C309.73 833.2 308.37 835.81 307.27 838.5C305.78 842.15 304.49 845.88 302.98 849.5C300.88 854.5 298.83 859.5 296.72 864.49C296.29 865.52 295.69 866.48 295.26 867.5C293.42 871.86 291.7 876.22 289.76 880.54C289.67 880.61 289.59 880.67 289.5 880.74ZM494.61 552.5C495 552.71 495.16 553.19 495.48 553.48C495.64 553.63 499.04 553.66 499.5 553.69C502.83 553.89 506.16 554.04 509.5 554.19C519.51 554.65 529.53 555.4 539.5 556.42C549.91 557.5 560.27 558.99 570.5 561.19C592.51 565.94 615.51 574.07 627.72 594.51C630.68 599.47 633.03 604.94 634.58 610.5C636.47 617.29 637.46 624.59 637.5 631.56C637.2 631.36 636.78 631.37 636.5 631.14C635.38 630.24 634.48 628.75 633.51 627.68C630.09 623.91 626.42 620.23 622.5 616.98C614.06 609.98 604.03 604.35 593.77 600.5C575.68 593.69 556.59 593.01 537.5 593.06C531.83 593.08 526.17 592.97 520.5 593.05C509.16 593.19 497.83 593.84 486.5 594.37C480.5 594.65 474.5 595.09 468.5 595.44C467.09 595.53 464.79 595.98 463.5 595.83C463.29 595.8 463.15 595.54 462.94 595.53C462.9 595.17 462.62 594.86 462.56 594.5C462.4 593.47 462.51 591.5 462.79 590.5C463.03 589.57 467.79 582.9 468.69 581.49C472.57 575.4 476.45 569.35 480.69 563.49C487.57 553.99 494.63 544.66 501.98 535.5C504.46 532.41 507.23 529.56 509.74 526.49C516.47 518.28 523.59 510.39 530.69 502.49C536.11 496.47 541.47 490.36 547.08 484.5C551.64 479.74 555.97 474.75 560.5 469.94C568.78 461.15 577.03 452.34 585.27 443.51C597.56 430.35 610.19 417.52 622.62 404.49C626.53 400.4 630.57 396.43 634.51 392.37C644.79 381.79 653.53 374.35 667.5 368.94C671.7 367.31 676.03 365.91 680.5 365.23C705.34 361.42 721.66 371.78 741.5 384.51C751.25 390.76 760.78 397.32 770.51 403.6C782 411.03 793.21 418.89 804.51 426.61C817.27 435.33 829.96 444.11 842.5 453.15C848.59 457.54 854.45 462.23 860.51 466.67C866.55 471.11 872.53 475.62 878.49 480.17C880.86 481.97 883.11 483.94 885.51 485.71C887.33 487.06 894.49 492.22 895.51 493.63C896.53 495.04 901.22 507 902.23 509.5C903.6 512.87 905.32 516.15 906.73 519.51C909.54 526.18 912.27 532.88 915.17 539.5C916.62 542.81 917.88 546.16 919.29 549.49C920.41 552.18 921.75 554.82 922.88 557.5C923.71 559.47 924.36 561.53 925.19 563.5C926.85 567.45 930.5 575.51 930.88 579.5C931.05 581.25 931.25 593.19 931.01 594.5C930.95 594.86 930.66 595.15 930.61 595.51C922.99 595.85 915.17 594.75 907.5 594.4C891.5 593.67 875.52 593.11 859.5 593.05C837.29 592.96 822.84 592.98 801.5 600.41C789.82 604.47 778.83 611.07 769.51 619.17C766.6 621.69 763.96 624.63 761.41 627.51C761.01 627.96 758.86 630.78 758.5 630.87C758.16 630.95 757.76 630.7 757.46 630.86C757.88 627.79 757.92 624.6 758.34 621.5C759.5 612.85 762.02 604.11 766.35 596.51C775.88 579.75 792.56 570.3 810.5 564.8C832.62 558.01 858.43 555.59 881.5 554.35C888.03 553.99 894.61 553.94 901.12 553.5C900.87 553.28 901.27 552.8 901.13 552.5C901.06 552.35 897.95 551.58 897.5 551.44C893.5 550.2 889.51 549.05 885.5 547.87C875.29 544.87 863.1 542.36 852.5 541.25C850.5 541.04 848.5 540.99 846.5 540.8C832.09 539.44 817.62 540.55 803.5 543.61C793.25 545.83 783.54 549.77 774.5 555.03C769.45 557.96 764.74 561.66 760.49 565.66C749.3 576.21 743.38 586.95 738.88 601.5C737.86 604.79 736.88 608.12 736.23 611.5C736.04 612.49 736.01 613.51 735.83 614.5C735.14 618.45 734.51 622.47 734.24 626.5C733.92 631.48 733.92 636.51 733.89 641.5C733.84 650.16 733.91 658.84 734.29 667.5C734.44 670.84 734.78 674.16 734.93 677.5C735.41 687.86 736.35 698.17 737.23 708.5C737.38 710.18 737.7 711.83 737.87 713.5C738.05 715.16 738.09 716.83 738.23 718.5C738.37 720.18 738.69 721.83 738.86 723.5C739.35 728.49 739.72 733.5 740.15 738.5C740.43 741.78 741.36 745.2 740.95 748.5C740.86 749.26 740.52 749.8 740.31 750.5C740.11 751.15 740.09 751.85 739.89 752.5C738.84 755.9 736.31 759.61 734.27 762.51C727.94 771.47 719.53 778.79 710.2 784.5C707.1 786.4 703.83 787.98 700.53 789.5C699.51 789.97 697.68 791.17 696.5 791.18C695.29 791.19 691.43 789.1 690.21 788.49C684.17 785.48 678.48 781.67 673.19 777.49C665.93 771.76 660.15 765.63 655.68 757.51C653.98 754.41 653.81 753.83 652.79 750.5C652.59 749.83 652.25 749.19 652.18 748.5C651.87 745.83 652.55 743.14 652.81 740.5C653.64 732.16 654.5 723.81 655.55 715.5C656.22 710.18 656.53 704.82 657.13 699.5C657.28 698.16 657.61 696.84 657.74 695.5C659.03 682.53 660.11 669.51 660.75 656.5C661.32 644.75 661.22 628.11 659.77 616.5C659.19 611.81 657.92 606.06 656.62 601.5C656.52 601.15 656.27 600.85 656.16 600.5C655.96 599.84 655.9 599.15 655.69 598.5C653.46 591.47 650.01 584.64 645.9 578.5C629.84 554.5 602.44 543.15 574.5 540.88C568.49 540.4 562.54 539.98 556.5 540.21C545.76 540.61 535.03 542.12 524.5 544.22C520.79 544.96 517.15 546.07 513.5 547.03C510.52 547.82 507.45 548.31 504.5 549.24C501.19 550.29 497.95 551.52 494.61 552.5ZM1052.5 810.11C1052.34 809.88 1052.04 809.77 1051.87 809.54C1050.99 808.35 1050.39 806.79 1049.64 805.51C1047.89 802.54 1046.29 799.51 1044.61 796.51C1035.16 779.63 1028.05 762.3 1020.58 744.5C1013.79 728.31 1007.54 711.88 1001.23 695.5C996.29 682.69 991.34 669.9 986.49 657.06C983.4 648.87 980.43 640.65 977.27 632.49C975.08 626.86 973.21 621.11 970.94 615.5C962 593.46 953.13 571.37 943.9 549.5C942.06 545.15 940.06 540.84 938.21 536.5C938.07 536.18 938.08 535.82 937.96 535.5C937.82 535.14 937.53 534.85 937.38 534.49C936.82 533.19 936.4 531.81 935.83 530.5C935.78 530.39 935.26 529.63 935.2 529.5C934.13 527.25 932.96 523.92 931.92 521.5C931.66 520.91 930.17 517.75 930.18 517.5C930.18 517.25 930.51 517.05 930.48 516.8C930.79 517 931.17 517.08 931.49 517.25C932.56 517.83 933.53 518.95 934.51 519.67C938.56 522.65 942.49 525.81 946.5 528.85C959.52 538.69 972.02 549.2 984.51 559.73C1015.6 585.92 1045.48 613.82 1072.21 644.49C1082.58 656.39 1092.88 669.55 1100.24 683.5C1104.99 692.51 1108.62 702.09 1108.17 712.5C1107.97 717.06 1106.79 721.27 1105.15 725.5C1099.73 739.5 1093.91 745.89 1085.13 757.5C1080.83 763.18 1076.3 768.72 1072.16 774.5C1065.44 783.87 1057.25 798.79 1053.21 809.55C1052.97 809.74 1052.74 809.92 1052.5 810.11ZM507.5 874.51C507.46 874.15 507.14 873.86 507.12 873.51C507.08 872.84 507.3 872.17 507.32 871.5C507.57 864.82 508.11 858.15 508.84 851.5C509.8 842.8 510.84 834.12 512.37 825.5C512.79 823.15 513.38 820.83 513.86 818.5C514.4 815.85 514.7 813.15 515.23 810.5C515.36 809.86 515.68 809.14 515.8 808.5C516.34 805.84 516.73 803.16 517.31 800.5C517.75 798.49 518.35 796.5 518.84 794.5C519.74 790.85 520.43 787.16 521.29 783.5C521.92 780.85 522.74 778.22 523.02 775.5C523.26 773.18 523.12 770.79 522.69 768.5C520.99 759.46 514.17 752.64 507.5 746.87C500.1 740.45 492.92 733.58 487.34 725.49C483.53 719.97 481.04 713.73 478.72 707.5C478.23 706.17 477.58 704.86 477.11 703.5C476.56 701.87 476.21 700.15 475.7 698.5C471.59 685.12 468.89 671.33 466.71 657.5C465.45 649.47 464.55 642.6 463.71 634.5C463.42 631.74 462.56 625.98 462.92 623.5C462.97 623.15 463.24 622.85 463.27 622.49C476.76 619.71 490.71 618.46 504.5 617.61C528.22 616.16 552.65 617.09 575.5 624.09C579.27 625.25 582.89 626.96 586.5 628.53C591.8 630.84 596.82 633.34 601.66 636.52C610.79 642.5 618.46 648.68 625.07 657.5C627.23 660.38 629.35 663.28 630.99 666.5C632.24 668.95 635.31 676.01 635.62 678.5C635.98 681.37 634.52 692.85 634.14 696.5C633.05 707.18 631.95 717.84 630.62 728.5C629.79 735.18 628.26 743.9 628.89 750.5C629.66 758.43 633.11 765.69 637 772.5C636.76 772.69 636.76 773.07 636.54 773.28C636.14 773.66 630.57 775.19 629.63 775.5C624.94 777.01 620.28 778.73 615.67 780.49C601.85 785.76 588.22 792.56 575.72 800.49C560.5 810.15 546.78 822 534.83 835.49C531.65 839.08 528.31 842.64 525.48 846.5C522.29 850.85 517.87 856.96 515.17 861.5C512.6 865.81 510.51 870.48 507.52 874.51L507.5 874.51ZM885.5 873.54C882.75 869.33 880.35 864.82 877.72 860.51C870.55 848.78 860.94 836.08 851.5 826.03C832.18 805.46 809.33 790.48 783 780.49C777.91 778.56 772.75 776.76 767.5 775.36C764.85 774.66 762.15 774 759.5 773.35C758.84 773.2 758.14 773.21 757.5 773C757.18 772.89 756.92 772.61 756.59 772.51C756.73 772.2 756.6 771.81 756.73 771.5C756.92 771.03 758.57 768.3 758.97 767.5C762.29 760.98 764.61 753.89 764.6 746.5C764.6 741.81 763.73 737.15 763.31 732.5C762.79 726.81 761.99 721.17 761.41 715.5C760.83 709.83 760.37 704.17 759.83 698.5C759.47 694.73 758.03 681.25 758.66 678.5C759.13 676.45 760.02 674.46 760.74 672.5C765.37 659.92 774.84 649.5 785.41 641.51C794.91 634.33 801.61 631.12 812.49 626.62C836.07 616.87 862.36 616.38 887.5 617.65C897.65 618.17 907.72 619.02 917.78 620.5C919.12 620.7 928.88 621.95 929.5 622.22C929.95 622.41 930.11 623.02 930.54 623.26C929.25 644.32 925.87 670.24 920.14 690.5C919.67 692.15 919.38 693.86 918.88 695.5C916.25 704.21 913.21 713.55 908.73 721.49C903.92 730.05 896.96 737.37 889.49 743.73C881.92 750.17 873.15 757.25 871 767.5C870.6 769.39 870.23 771.56 870.23 773.5C870.23 777.87 871.67 782.3 872.7 786.5C874.16 792.47 875.48 798.48 876.75 804.5C878.42 812.46 879.84 820.47 881.15 828.5C881.69 831.83 882.37 835.15 882.81 838.5C883.34 842.5 883.69 846.5 884.14 850.5C884.67 855.16 885.31 859.82 885.66 864.5C885.82 866.5 885.75 868.5 885.86 870.5C885.87 870.71 886.09 872.31 886.06 872.51C886 872.88 885.67 873.17 885.65 873.54L885.5 873.54ZM581.21 642.5C580.94 642.28 580.77 641.96 580.51 641.73C579.45 640.77 573.17 638.3 571.51 637.61C562.54 633.91 557.11 632.81 547.5 631.62C545.58 631.38 537.92 630.4 536.5 630.86C536.14 630.98 535.92 631.42 535.54 631.49C533.78 635.73 532.63 639.83 532.75 644.5C532.98 653.13 538.1 660.91 545.5 665.12C547.38 666.2 549.35 667.26 551.5 667.76C556.36 668.89 561.67 668.36 566.26 666.52C567.78 665.91 569.17 665.01 570.5 664.09C577.93 658.92 580.79 651.29 581.21 642.5ZM859.5 631.48C859.13 631.41 858.87 631.04 858.5 630.94C856.36 630.36 847.32 631.6 844.5 631.92C833.49 633.16 824.2 636.42 814.44 641.5C814.38 641.88 813.94 642.12 813.85 642.5C813.61 643.52 814.44 649.13 814.8 650.5C815.53 653.38 816.73 656.19 818.51 658.58C830.17 674.31 853.11 670.22 860.18 652.5C861.09 650.24 861.78 647.96 861.98 645.5C862.41 640.4 861.44 636.12 859.5 631.48ZM526.52 1114.22C521.5 1112.46 516.42 1110.83 511.5 1108.83C499.07 1103.78 484.95 1096.7 473.51 1089.7C439.47 1068.9 407.22 1040.31 377.56 1013.51C368.8 1005.59 360.41 997.22 351.48 989.5C338.41 978.2 325.57 966.64 312.49 955.35C306.26 949.97 297.28 942.69 295.08 934.5C292.53 925.03 297.93 915.72 301.84 907.5C309.67 891.06 316.77 874.25 323.97 857.5C327.24 849.91 330.1 842.14 333.26 834.51C337.12 825.18 341.04 815.86 344.85 806.5C347.85 799.12 350.78 791.7 354.19 784.5C360.52 771.18 367.76 758.4 374.9 745.5C384.58 728.01 394.74 710.79 404.74 693.49C411.91 681.11 419.37 668.89 426.5 656.5C429.49 651.31 432.39 646.08 435.5 640.96C435.85 640.37 438.29 636.03 438.5 635.89C438.79 635.69 439.26 635.78 439.51 635.52C439.78 638.84 440.27 642.17 440.63 645.5C442.44 662.67 445.2 679.85 449.79 696.5C453.39 709.57 457.4 722.74 464.26 734.49C470.79 745.68 478.32 753.25 487.49 762.18C490.13 764.74 492.74 767.31 495.51 769.74C496.47 770.58 498.27 771.65 498.59 772.97C498.75 773.62 496.57 782.12 496.27 783.5C494.77 790.41 493.39 797.55 492.11 804.5C490.46 813.47 489.15 822.48 487.8 831.5C487.29 834.83 486.64 838.16 486.16 841.5C485.6 845.48 485.25 849.5 484.79 853.5C484.29 857.83 483.67 862.16 483.24 866.5C483.01 868.83 483 871.17 482.79 873.5C482.62 875.51 482.28 877.49 482.15 879.5C481.98 882.16 481.97 884.83 481.85 887.5C481.66 891.5 481.27 895.49 481.17 899.5C480.95 908.69 481.36 919.33 482.19 928.5C483.56 943.57 485.9 958.5 487.75 973.5C488.28 977.83 488.63 982.17 489.13 986.5C490.4 997.54 492.05 1008.58 494.12 1019.5C494.88 1023.53 495.91 1027.52 496.86 1031.5C497.41 1033.82 497.84 1036.17 498.38 1038.5C498.77 1040.18 499.39 1041.83 499.8 1043.5C499.96 1044.16 499.98 1044.85 500.16 1045.5C501.22 1049.2 502.5 1052.83 503.65 1056.51C505.11 1061.18 506.52 1065.9 508.2 1070.5C509.31 1073.52 510.66 1076.5 511.82 1079.5C512.97 1082.5 514 1085.53 515.23 1088.49C516.92 1092.57 518.98 1096.51 520.84 1100.5C522.85 1104.85 524.74 1109.28 527.03 1113.5L526.52 1114.22ZM858.69 1118.5C876.11 1089.01 889 1056.92 896.78 1023.5C897.32 1021.18 897.66 1018.83 898.14 1016.5C898.69 1013.83 899.41 1011.19 899.87 1008.5C900.03 1007.51 900.05 1006.5 900.23 1005.5C900.37 1004.73 900.63 1004.28 900.77 1003.5C901 1002.18 901.04 1000.83 901.28 999.5C901.41 998.81 901.68 998.2 901.79 997.5C902 996.18 902 994.83 902.19 993.5C902.33 992.48 902.65 991.52 902.81 990.5C903.53 985.85 904.21 981.16 904.82 976.5C905.33 972.51 905.67 968.49 906.2 964.5C906.34 963.49 906.62 962.51 906.76 961.5C907.02 959.51 907.08 957.5 907.32 955.5C909.37 938.89 911.19 922.26 911.67 905.5C911.91 896.84 911.41 888.15 910.97 879.5C910.82 876.49 910.41 873.5 910.17 870.5C909.51 862.16 908.85 853.8 907.75 845.5C906.07 832.79 903.93 820.13 901.77 807.5C901.31 804.82 900.65 802.17 900.14 799.5C899.06 793.83 898.1 788.15 896.9 782.5C896.6 781.07 894.84 774.38 894.96 773.5C895.19 771.81 897 770.65 898.19 769.51C901.26 766.55 904.41 763.69 907.49 760.75C917.62 751.08 925.55 742.07 931.91 729.5C941.94 709.66 947.49 683.45 950.9 661.5C951.51 657.52 951.81 653.5 952.25 649.5C952.48 647.5 952.88 645.51 953.11 643.5C953.21 642.67 953.74 636.79 953.88 636.45C954 636.18 954.42 636.09 954.5 635.81C954.6 636.06 954.86 636.22 954.97 636.47C955.51 637.72 955.73 639.21 956.23 640.5C956.75 641.85 957.4 643.16 957.94 644.5C958.86 646.79 959.46 649.18 960.3 651.49C961.78 655.54 963.48 659.49 965.05 663.5C965.56 664.79 965.87 666.19 966.35 667.5C967.47 670.53 968.76 673.49 969.94 676.5C971.49 680.45 972.73 684.55 974.28 688.5C975.45 691.5 976.78 694.47 977.9 697.5C983.37 712.27 989.07 726.9 995.03 741.5C996.58 745.27 997.96 749.12 999.49 752.89C1002.84 761.17 1006.46 769.33 1010.07 777.5C1013.71 785.74 1017.39 793.96 1021.49 802C1025.24 809.35 1029.44 816.49 1033.75 823.51C1035.57 826.47 1037.19 829.53 1038.99 832.5C1040.85 835.55 1042.93 838.46 1044.81 841.51C1053.05 854.86 1061.94 867.85 1071.24 880.49C1075.74 886.61 1080.56 892.51 1085.22 898.49C1093.58 909.22 1107.06 923.71 1108.5 937.5C1109.28 945.03 1103.3 951.72 1098.49 956.84C1085.92 970.23 1070.96 981.1 1056.51 992.35C1041.94 1003.69 1027.52 1015.29 1013.51 1027.3C1010.78 1029.64 1008.2 1032.15 1005.48 1034.5C978.67 1057.68 950.1 1083 918.5 1099.12C905.01 1106 895.05 1109.91 880.5 1114.24C875.11 1115.84 870.03 1117.22 864.5 1118.3C863.87 1118.43 859.61 1119.37 859.49 1119.33C859.12 1119.23 859.07 1118.56 858.69 1118.5ZM642.51 1215.58C642.18 1215.48 641.84 1215.78 641.5 1215.77C641.04 1215.75 640.32 1214.78 639.97 1214.5C638.33 1213.16 636.66 1211.86 635.04 1210.5C630.76 1206.91 626.68 1203.09 622.49 1199.39C606.17 1184.95 591.18 1168.79 577.93 1151.5C575.38 1148.17 572.73 1144.92 570.31 1141.49C563.05 1131.23 556.31 1120.49 550.26 1109.49C547.57 1104.61 545.19 1099.53 542.77 1094.5C539.76 1088.24 536.9 1081.91 534.18 1075.5C532.93 1072.57 532.05 1069.48 530.93 1066.5C530.04 1064.16 529.05 1061.85 528.22 1059.5C527.64 1057.86 527.24 1056.16 526.72 1054.5C526.3 1053.16 525.74 1051.84 525.31 1050.5C521.13 1037.13 517.8 1023.37 515.79 1009.5C515.3 1006.17 514.67 1002.84 514.26 999.5C514.01 997.51 513.97 995.5 513.79 993.5C513.64 991.83 513.31 990.17 513.18 988.5C512.6 980.99 512.18 972.02 512.58 964.5C512.79 960.51 512.9 956.48 513.28 952.5C513.86 946.46 514.91 940.47 515.9 934.5C516.07 933.5 516.1 932.5 516.28 931.5C516.41 930.83 516.7 930.17 516.84 929.5C517.32 927.17 517.64 924.81 518.17 922.5C522.82 902.12 531.48 879.8 543.33 862.51C561.82 835.55 588.97 816.06 619.32 804.5C628.69 800.94 638.51 797.9 648.5 796.71C650.2 796.51 656.3 795.84 657.5 796.04C657.84 796.1 658.17 796.18 658.49 796.29C659.21 796.55 659.88 797.42 660.5 797.87C662.78 799.51 665.14 801.09 667.51 802.6C672.95 806.08 678.71 809.11 684.5 811.94C687.49 813.4 693.24 815.79 696.5 815.73C697.45 815.72 698.59 815.33 699.5 815.12C709.41 812.84 718.1 807.29 726.49 801.76C727.63 801.01 735.23 795.36 735.51 795.27C737.41 794.71 743.31 795.09 745.5 795.26C763.93 796.71 781.63 803.59 797.65 812.51C822.77 826.48 843.07 848.32 856.62 873.51C861.93 883.39 866.19 893.88 869.82 904.5C870.37 906.12 870.72 907.85 871.19 909.5C875.87 926.04 878.71 942.29 879.74 959.5C880.39 970.48 879.82 981.56 878.77 992.5C878.64 993.85 878.32 995.16 878.14 996.5C877.3 1002.89 876.38 1009.2 875.01 1015.5C874.28 1018.83 873.76 1022.2 872.9 1025.5C863.75 1060.47 850.69 1089.18 831.1 1119.5C815.56 1143.57 793.41 1169.53 772.79 1189.49C767.72 1194.4 762.78 1199.48 757.51 1204.16C756.84 1204.76 751.85 1209.47 751.5 1209.46C751.06 1209.46 750.92 1208.6 750.48 1208.63C750.77 1205.85 750.35 1197.97 750.37 1194.5C750.44 1182.83 750.38 1171.17 750.4 1159.5C750.46 1124.17 750.43 1088.83 750.41 1053.5C750.39 1036.17 750.46 1018.83 750.4 1001.5C750.35 988.78 750.85 975.84 747.25 963.5C745.97 959.09 744.63 954.73 742.84 950.5C742.11 948.78 741.14 947.15 740.3 945.49C733.32 931.85 723.72 919.35 712.5 908.81C709.01 905.53 705.54 902.41 701.5 899.83C700.6 899.25 697.38 896.88 696.5 896.79C695.22 896.66 692.08 898.79 690.94 899.5C686.58 902.22 682.58 905.82 678.98 909.5C667.97 920.75 657.32 935.13 650.89 949.5C648.73 954.33 647.07 959.41 645.67 964.5C642.27 976.83 642.6 989.82 642.59 1002.5C642.59 1016.17 642.61 1029.83 642.57 1043.5C642.47 1080.5 642.45 1117.5 642.52 1154.5C642.54 1167.5 642.5 1180.5 642.55 1193.5C642.58 1200.83 642.79 1208.17 642.54 1215.5C642.53 1215.53 642.52 1215.55 642.51 1215.58ZM696.5 1283C696.2 1282.85 695.81 1283.11 695.5 1283C693.66 1282.36 696.38 1282.6 694.5 1282C694.18 1281.9 693.77 1282.2 693.5 1282C692.74 1281.46 692.26 1280.53 691.5 1279.99C690.29 1279.12 691.34 1280.85 689.5 1279C689.17 1278.66 688.95 1278.14 688.5 1277.99C688.18 1277.88 687.77 1278.2 687.5 1278C686.98 1277.63 686 1276.15 685.5 1275.98C685.18 1275.88 684.77 1276.2 684.5 1276.01C683.99 1275.64 682.99 1274.14 682.5 1273.97C682.18 1273.87 681.77 1274.2 681.5 1274.01C680.74 1273.47 680.26 1272.53 679.5 1271.99C679.23 1271.79 678.82 1272.11 678.5 1272C677.7 1271.74 677.29 1270.26 676.5 1269.99C676.18 1269.89 675.77 1270.2 675.5 1270C674.74 1269.46 674.26 1268.53 673.5 1267.99C673.23 1267.8 672.82 1268.11 672.5 1268C671.91 1267.81 670.2 1265.48 669.5 1264.98C669.23 1264.79 668.82 1265.1 668.5 1265C668.34 1264.95 666.15 1262.66 666.1 1262.5C665.7 1261.29 666.05 1257.01 666.06 1255.5C666.08 1250.17 666.07 1244.83 666.07 1239.5C666.08 1221.83 666.09 1204.17 666.07 1186.5C665.98 1126.17 665.85 1065.83 666.07 1005.5C666.11 995.55 665.36 982.04 667.18 972.5C667.31 971.82 667.62 971.17 667.8 970.5C667.97 969.85 667.99 969.16 668.14 968.5C668.55 966.81 669.21 965.13 669.81 963.5C670.28 962.19 670.66 960.81 671.17 959.5C673.82 952.6 679.42 944.51 683.84 938.5C686.21 935.26 688.79 932.17 691.51 929.2C692.21 928.43 694.79 925.34 695.5 924.98C695.81 924.82 696.21 924.92 696.5 924.74C699.53 927.99 702.73 931.12 705.6 934.51C713.25 943.56 721.53 956.14 724.8 967.5C727.87 978.21 727.16 989.47 727.17 1000.5C727.18 1016.83 727.22 1033.17 727.18 1049.5C727.05 1096.83 727.04 1144.17 727.18 1191.5C727.23 1206.5 727.29 1221.5 727.17 1236.5C727.14 1241.5 727.15 1246.5 727.16 1251.5C727.16 1252.55 727 1257.92 727.16 1258.51C727.2 1258.66 727.44 1258.66 727.54 1258.78C727.72 1259 727.9 1259.23 728 1259.5C727.78 1259.61 727.75 1259.98 727.52 1260.05C727.2 1260.16 726.79 1259.82 726.5 1260C725.81 1260.42 725.26 1261.76 724.5 1262C724.18 1262.1 723.77 1261.79 723.5 1261.98C722.83 1262.46 721.05 1264.84 720.5 1265.01C720.18 1265.1 719.77 1264.77 719.5 1264.96C717.98 1266.04 717.03 1267.92 715.5 1269.01C715.23 1269.2 714.82 1268.87 714.5 1268.97C713.86 1269.18 712.67 1271.03 712 1271.5C711.81 1271.64 711.73 1271.94 711.5 1272.01C711.18 1272.1 710.79 1271.8 710.5 1271.97C709.33 1272.66 708.62 1274.21 707.5 1275C707.23 1275.2 706.82 1274.88 706.5 1274.98C706.01 1275.14 705.01 1276.63 704.5 1277C704.23 1277.19 703.82 1276.89 703.5 1277C702.91 1277.19 701.2 1279.5 700.5 1280C700.23 1280.19 699.82 1279.89 699.5 1280C699.05 1280.15 697.43 1282.05 696.99 1282.49C696.82 1282.66 696.66 1282.83 696.5 1283Z"/>
</svg>
